<?xml version="1.0" encoding="UTF-8" standalone="no"?>
<svg
   xmlns:dc="http://purl.org/dc/elements/1.1/"
   xmlns:cc="http://creativecommons.org/ns#"
   xmlns:rdf="http://www.w3.org/1999/02/22-rdf-syntax-ns#"
   xmlns:svg="http://www.w3.org/2000/svg"
   xmlns="http://www.w3.org/2000/svg"
   viewBox="0 0 1250 663.53497"
   height="663.53497"
   width="1250"
   xml:space="preserve"
   version="1.1"
   id="svg3805"><metadata
     id="metadata3811"><rdf:RDF><cc:Work
         rdf:about=""><dc:format>image/svg+xml</dc:format><dc:type
           rdf:resource="http://purl.org/dc/dcmitype/StillImage" /><dc:title></dc:title></cc:Work></rdf:RDF></metadata><defs
     id="defs3809"><clipPath
       id="clipPath3819"
       clipPathUnits="userSpaceOnUse"><path
         id="path3821"
         d="m 0,530.828 1000,0 L 1000,0 0,0 0,530.828 Z" /></clipPath></defs><g
     transform="matrix(1.25,0,0,-1.25,0,663.535)"
     id="g3813"><g
       id="g3815"><g
         clip-path="url(#clipPath3819)"
         id="g3817"><g
           transform="translate(507.0352,513.8408)"
           id="g3823"><path
             id="path3825"
             style="fill:#488bc9;fill-opacity:1;fill-rule:nonzero;stroke:none"
             d="m 0,0 c -2.83,1.754 -6.178,2.764 -9.756,2.764 -10.279,0 -18.6,-8.333 -18.6,-18.612 0,-6.782 3.62,-12.711 9.039,-15.966 30.651,-18.378 51.178,-51.918 51.178,-90.264 0,-38.354 -20.537,-71.912 -51.21,-90.277 -5.404,-3.264 -9.015,-9.186 -9.015,-15.954 0,-10.279 8.327,-18.609 18.604,-18.609 3.598,0 6.936,1.014 9.783,2.783 l 0,-0.01 c 41.373,24.905 69.053,70.249 69.053,122.067 C 69.076,-70.263 41.389,-24.905 0,0" /></g><g
           transform="translate(469.8828,438.8076)"
           id="g3827"><path
             id="path3829"
             style="fill:#488bc9;fill-opacity:1;fill-rule:nonzero;stroke:none"
             d="m 0,0 c 0,-12.698 -10.299,-23.002 -23.011,-23.002 -12.697,0 -22.991,10.304 -22.991,23.002 0,12.703 10.294,23.001 22.991,23.001 C -10.299,23.001 0,12.703 0,0" /></g><g
           transform="translate(469.8828,344.7139)"
           id="g3831"><path
             id="path3833"
             style="fill:#488bc9;fill-opacity:1;fill-rule:nonzero;stroke:none"
             d="m 0,0 c 0,-12.697 -10.299,-22.994 -23.011,-22.994 -12.697,0 -22.991,10.297 -22.991,22.994 0,12.709 10.294,23.008 22.991,23.008 C -10.299,23.008 0,12.709 0,0" /></g><g
           transform="translate(395.4395,493.6035)"
           id="g3835"><path
             id="path3837"
             style="fill:#f89c1c;fill-opacity:1;fill-rule:nonzero;stroke:none"
             d="M 0,0 C 10.24,0 18.61,8.376 18.61,18.612 18.61,28.847 10.24,37.225 0,37.225 l -101.83,0 c -10.239,0 -18.609,-8.378 -18.609,-18.613 L -120.439,0 0,0 Z" /></g><g
           transform="translate(342.3311,433.3818)"
           id="g3839"><path
             id="path3841"
             style="fill:#488bc9;fill-opacity:1;fill-rule:nonzero;stroke:none"
             d="M 0,0 C 10.239,0 18.61,8.375 18.61,18.609 18.61,28.849 10.239,37.22 0,37.22 l -67.331,0 0,-37.22 L 0,0 Z" /></g><g
           transform="translate(309.5039,373.1611)"
           id="g3843"><path
             id="path3845"
             style="fill:#488bc9;fill-opacity:1;fill-rule:nonzero;stroke:none"
             d="m 0,0 c 10.225,0 18.609,8.371 18.609,18.602 0,10.24 -8.384,18.61 -18.609,18.61 l -34.504,0 L -34.504,0 0,0 Z" /></g><g
           transform="translate(342.3311,312.9385)"
           id="g3847"><path
             id="path3849"
             style="fill:#f89c1c;fill-opacity:1;fill-rule:nonzero;stroke:none"
             d="M 0,0 C 10.239,0 18.61,8.381 18.61,18.6 18.61,28.85 10.239,37.211 0,37.211 l -67.331,0 L -67.331,0 0,0 Z" /></g><g
           transform="translate(293.6152,252.709)"
           id="g3851"><path
             id="path3853"
             style="fill:#488bc9;fill-opacity:1;fill-rule:nonzero;stroke:none"
             d="m 0,0 101.824,0 c 10.24,0 18.611,8.371 18.611,18.601 0,10.248 -8.371,18.619 -18.611,18.619 l -120.439,0 0,-18.619 C -18.615,8.371 -10.245,0 0,0" /></g><g
           transform="translate(604.5586,289.9287)"
           id="g3855"><path
             id="path3857"
             style="fill:#f89c1c;fill-opacity:1;fill-rule:nonzero;stroke:none"
             d="m 0,0 c -10.238,0 -18.619,-8.371 -18.619,-18.619 0,-10.23 8.381,-18.601 18.619,-18.601 l 101.832,0 c 10.231,0 18.609,8.371 18.609,18.601 L 120.441,0 0,0 Z" /></g><g
           transform="translate(657.668,350.1494)"
           id="g3859"><path
             id="path3861"
             style="fill:#488bc9;fill-opacity:1;fill-rule:nonzero;stroke:none"
             d="m 0,0 c -10.238,0 -18.609,-8.361 -18.609,-18.611 0,-10.219 8.371,-18.6 18.609,-18.6 l 67.332,0 L 67.332,0 0,0 Z" /></g><g
           transform="translate(690.4961,410.373)"
           id="g3863"><path
             id="path3865"
             style="fill:#488bc9;fill-opacity:1;fill-rule:nonzero;stroke:none"
             d="m 0,0 c -10.23,0 -18.609,-8.37 -18.609,-18.61 0,-10.231 8.379,-18.602 18.609,-18.602 l 34.504,0 L 34.504,0 0,0 Z" /></g><g
           transform="translate(657.668,470.6016)"
           id="g3867"><path
             id="path3869"
             style="fill:#f89c1c;fill-opacity:1;fill-rule:nonzero;stroke:none"
             d="m 0,0 c -10.238,0 -18.609,-8.371 -18.609,-18.61 0,-10.235 8.371,-18.61 18.609,-18.61 l 67.332,0 0,37.22 L 0,0 Z" /></g><g
           transform="translate(706.3906,530.8281)"
           id="g3871"><path
             id="path3873"
             style="fill:#488bc9;fill-opacity:1;fill-rule:nonzero;stroke:none"
             d="m 0,0 -101.83,0 c -10.24,0 -18.621,-8.378 -18.621,-18.612 0,-10.237 8.381,-18.613 18.621,-18.613 l 120.439,0 0,18.613 C 18.609,-8.378 10.23,0 0,0" /></g><g
           transform="translate(100.2422,155.3779)"
           id="g3875"><path
             id="path3877"
             style="fill:#474748;fill-opacity:1;fill-rule:nonzero;stroke:none"
             d="m 0,0 c 4.399,0 6.583,-2.394 6.583,-7.108 l 0,-107 c 0,-4.779 -2.184,-7.109 -6.583,-7.109 -4.257,0 -6.39,2.33 -6.39,7.109 l 0,48.125 -80.88,0 0,-48.125 c 0,-4.779 -2.187,-7.109 -6.586,-7.109 -4.246,0 -6.386,2.33 -6.386,7.109 l 0,107 c 0,4.714 2.14,7.108 6.386,7.108 4.399,0 6.586,-2.394 6.586,-7.108 l 0,-46.941 80.88,0 0,46.941 C -6.39,-2.394 -4.257,0 0,0" /></g><g
           transform="translate(150.0098,53.3457)"
           id="g3879"><path
             id="path3881"
             style="fill:#474748;fill-opacity:1;fill-rule:nonzero;stroke:none"
             d="m 0,0 c 5.996,-6.16 13.768,-9.249 23.348,-9.249 9.593,0 17.377,3.089 23.372,9.249 5.955,6.161 8.964,14.218 8.964,24.162 0,9.841 -3.009,17.85 -9.063,24.067 C 40.574,54.444 32.85,57.58 23.348,57.58 13.768,57.58 5.996,54.491 0,48.331 -5.994,42.162 -8.973,34.105 -8.973,24.162 -8.973,14.218 -5.994,6.161 0,0 m 61.904,67.523 c 4.033,0 6.046,-2.179 6.046,-6.563 l 0,-73.581 c 0,-4.376 -2.013,-6.564 -6.046,-6.564 -4.15,0 -6.22,2.188 -6.22,6.564 l 0,8.349 -0.339,0 c -7.113,-10.695 -18.431,-16.019 -33.94,-16.019 -12.772,0 -23.122,4.084 -30.993,12.282 -7.891,8.159 -11.84,18.902 -11.84,32.171 0,13.284 3.949,24.011 11.84,32.178 7.871,8.142 18.221,12.273 30.993,12.273 15.509,0 26.827,-5.37 33.94,-16.009 l 0.339,0 0,8.356 c 0,4.384 2.07,6.563 6.22,6.563" /></g><g
           transform="translate(263.5576,53.3457)"
           id="g3883"><path
             id="path3885"
             style="fill:#474748;fill-opacity:1;fill-rule:nonzero;stroke:none"
             d="m 0,0 c 5.983,-6.16 13.774,-9.249 23.367,-9.249 9.601,0 17.42,3.089 23.478,9.249 6.051,6.161 9.06,14.218 9.06,24.162 0,9.943 -3.009,18 -9.06,24.169 C 40.787,54.491 32.968,57.58 23.367,57.58 13.894,57.58 6.142,54.444 0.095,48.229 -5.947,42.012 -8.977,34.003 -8.977,24.162 -8.977,14.218 -5.999,6.161 0,0 m 25.33,68.613 c 12.804,0 23.174,-4.131 31.105,-12.273 7.945,-8.167 11.91,-18.894 11.91,-32.178 0,-13.269 -3.965,-24.012 -11.91,-32.171 -7.931,-8.198 -18.301,-12.282 -31.105,-12.282 -15.52,0 -26.847,5.324 -33.935,16.019 l -0.372,0 0,-41.419 c 0,-4.384 -2.073,-6.565 -6.211,-6.565 -4.033,0 -6.043,2.181 -6.043,6.565 l 0,106.651 c 0,4.384 2.01,6.563 6.043,6.563 4.138,0 6.211,-2.179 6.211,-6.563 l 0,-8.356 0.372,0 C -1.517,63.243 9.81,68.613 25.33,68.613" /></g><g
           transform="translate(373.5469,53.3457)"
           id="g3887"><path
             id="path3889"
             style="fill:#474748;fill-opacity:1;fill-rule:nonzero;stroke:none"
             d="m 0,0 c 5.982,-6.16 13.767,-9.249 23.359,-9.249 9.569,0 17.401,3.089 23.454,9.249 6.039,6.161 9.064,14.218 9.064,24.162 0,9.943 -3.025,18 -9.064,24.169 C 40.76,54.491 32.928,57.58 23.359,57.58 13.885,57.58 6.133,54.444 0.095,48.229 -5.947,42.012 -8.984,34.003 -8.984,24.162 -8.984,14.218 -5.999,6.161 0,0 m 25.311,68.613 c 12.794,0 23.166,-4.131 31.095,-12.273 7.93,-8.167 11.91,-18.894 11.91,-32.178 0,-13.269 -3.98,-24.012 -11.91,-32.171 -7.929,-8.198 -18.301,-12.282 -31.095,-12.282 -15.529,0 -26.835,5.324 -33.944,16.019 l -0.351,0 0,-41.419 c 0,-4.384 -2.094,-6.565 -6.213,-6.565 -4.024,0 -6.033,2.181 -6.033,6.565 l 0,106.651 c 0,4.384 2.009,6.563 6.033,6.563 4.119,0 6.213,-2.179 6.213,-6.563 l 0,-8.356 0.351,0 c 7.109,10.639 18.415,16.009 33.944,16.009" /></g><g
           transform="translate(535.6523,120.8691)"
           id="g3891"><path
             id="path3893"
             style="fill:#474748;fill-opacity:1;fill-rule:nonzero;stroke:none"
             d="m 0,0 c 4.064,0 6.074,-2.18 6.074,-6.563 l 0,-72.547 c 0,-12.874 -3.779,-23.072 -11.287,-30.528 -7.539,-7.503 -17.822,-11.231 -30.857,-11.231 -16.955,0 -28.858,4.668 -35.725,14.059 -0.818,1.201 -1.228,2.441 -1.228,3.736 0,1.636 0.517,3.025 1.58,4.163 1.074,1.105 2.479,1.714 4.276,1.714 1.418,0 2.657,-0.561 3.731,-1.604 6.639,-7.361 15.683,-11.034 27.2,-11.034 9.343,0 16.709,2.686 22.019,8.049 5.352,5.426 8.006,12.827 8.006,22.329 l 0,8.546 -0.34,0 c -6.769,-10.182 -17.306,-15.308 -31.648,-15.308 -11.836,0 -20.911,3.389 -27.211,10.142 -6.287,6.768 -9.41,16.563 -9.41,29.335 l 0,40.179 c 0,4.383 2.009,6.563 6.062,6.563 4.131,0 6.219,-2.18 6.219,-6.563 l 0,-39.128 c 0,-9.605 2.307,-16.912 6.935,-21.927 4.601,-5.031 11.311,-7.559 20.057,-7.559 8.906,0 16.02,2.978 21.33,8.996 5.352,5.972 8.006,13.973 8.006,24.059 l 0,35.559 C -6.211,-2.18 -4.119,0 0,0" /></g><g
           transform="translate(559.209,154.2871)"
           id="g3895"><path
             id="path3897"
             style="fill:#474748;fill-opacity:1;fill-rule:nonzero;stroke:none"
             d="m 0,0 97.598,0 c 1.894,0 3.435,-0.497 4.629,-1.595 1.171,-1.043 1.755,-2.48 1.755,-4.289 0,-1.872 -0.564,-3.364 -1.677,-4.407 -1.125,-1.105 -2.717,-1.596 -4.707,-1.596 l -42.131,0 0,-101.131 c 0,-4.778 -2.196,-7.108 -6.598,-7.108 -4.25,0 -6.39,2.33 -6.39,7.108 l 0,101.131 -42.479,0 c -2.014,0 -3.584,0.491 -4.707,1.596 -1.113,1.043 -1.682,2.535 -1.682,4.407 0,1.809 0.588,3.246 1.762,4.289 C -3.439,-0.497 -1.895,0 0,0" /></g><g
           transform="translate(697.1602,110.9258)"
           id="g3899"><path
             id="path3901"
             style="fill:#474748;fill-opacity:1;fill-rule:nonzero;stroke:none"
             d="m 0,0 c -8.4,0 -15.49,-2.434 -21.232,-7.361 -5.743,-4.913 -9.276,-11.485 -10.567,-19.644 l 63.826,0 C 30.701,-18.846 27.174,-12.274 21.424,-7.361 15.682,-2.434 8.553,0 0,0 m 43.551,-30.228 c 0,-4.975 -2.606,-7.456 -7.791,-7.456 l -67.91,0 c 0.955,-8.752 4.402,-15.82 10.4,-21.144 5.965,-5.362 13.594,-8.001 22.824,-8.001 11.504,0 20.211,3.831 26.131,11.54 1.193,1.635 2.852,2.488 4.992,2.488 1.666,0 3.018,-0.545 4.08,-1.595 1.067,-1.043 1.59,-2.441 1.59,-4.092 0,-1.28 -0.398,-2.528 -1.248,-3.72 -8.146,-10.434 -20.01,-15.663 -35.545,-15.663 -13.752,0 -24.818,4.084 -33.224,12.282 -8.42,8.159 -12.62,18.901 -12.62,32.171 0,13.284 4.124,24.011 12.424,32.178 8.299,8.142 19.104,12.273 32.346,12.273 12.578,0 22.967,-3.925 31.209,-11.728 8.25,-7.86 12.342,-17.654 12.342,-29.533" /></g><g
           transform="translate(777.0195,53.3457)"
           id="g3903"><path
             id="path3905"
             style="fill:#474748;fill-opacity:1;fill-rule:nonzero;stroke:none"
             d="m 0,0 c 5.959,-6.16 13.771,-9.249 23.359,-9.249 9.602,0 17.385,3.089 23.379,9.249 5.989,6.161 8.965,14.218 8.965,24.162 0,9.841 -3.023,17.85 -9.043,24.067 C 40.586,54.444 32.834,57.58 23.359,57.58 13.771,57.58 5.959,54.491 0,48.331 -5.994,42.162 -8.984,34.105 -8.984,24.162 -8.984,14.218 -5.994,6.161 0,0 m 61.924,67.523 c 4.035,0 6.066,-2.179 6.066,-6.563 l 0,-73.581 c 0,-4.376 -2.031,-6.564 -6.066,-6.564 -4.151,0 -6.221,2.188 -6.221,6.564 l 0,8.349 -0.338,0 c -7.121,-10.695 -18.431,-16.019 -33.969,-16.019 -12.802,0 -23.113,4.084 -31.023,12.282 -7.879,8.159 -11.809,18.902 -11.809,32.171 0,13.284 3.93,24.011 11.809,32.178 7.91,8.142 18.221,12.273 31.023,12.273 15.538,0 26.848,-5.37 33.969,-16.009 l 0.338,0 0,8.356 c 0,4.384 2.07,6.563 6.221,6.563" /></g><g
           transform="translate(967.3047,121.959)"
           id="g3907"><path
             id="path3909"
             style="fill:#474748;fill-opacity:1;fill-rule:nonzero;stroke:none"
             d="m 0,0 c 21.807,0 32.695,-12.621 32.695,-37.888 l 0,-43.346 c 0,-4.376 -2.062,-6.564 -6.22,-6.564 -4.024,0 -6.034,2.188 -6.034,6.564 l 0,42.311 c 0,18.593 -7.464,27.89 -22.404,27.89 -7.578,0 -13.574,-2.828 -17.949,-8.46 -4.375,-5.615 -6.592,-13.174 -6.592,-22.66 l 0,-39.081 c 0,-4.376 -2.06,-6.564 -6.219,-6.564 -4.025,0 -6.039,2.188 -6.039,6.564 l 0,42.311 c 0,18.593 -7.539,27.89 -22.578,27.89 -7.459,0 -13.394,-2.828 -17.771,-8.46 -4.375,-5.615 -6.563,-13.174 -6.563,-22.66 l 0,-39.081 c 0,-4.376 -2.015,-6.564 -6.066,-6.564 -4.151,0 -6.221,2.188 -6.221,6.564 l 0,73.581 c 0,4.383 2.07,6.563 6.221,6.563 4.051,0 6.066,-2.18 6.066,-6.563 l 0,-5.663 0.352,0 C -79.402,-4.47 -70.537,0 -58.674,0 c 13.625,0 22.942,-5.418 27.922,-16.199 l 0.35,0 C -24.461,-5.418 -14.348,0 0,0" /></g></g></g></g></svg>