<?xml version="1.0" encoding="UTF-8" standalone="no"?>
<svg
   xmlns:dc="http://purl.org/dc/elements/1.1/"
   xmlns:cc="http://creativecommons.org/ns#"
   xmlns:rdf="http://www.w3.org/1999/02/22-rdf-syntax-ns#"
   xmlns:svg="http://www.w3.org/2000/svg"
   xmlns="http://www.w3.org/2000/svg"
   viewBox="0 0 1249.9987 772.55127"
   height="772.55127"
   width="1249.9987"
   xml:space="preserve"
   version="1.1"
   id="svg3697"><metadata
     id="metadata3703"><rdf:RDF><cc:Work
         rdf:about=""><dc:format>image/svg+xml</dc:format><dc:type
           rdf:resource="http://purl.org/dc/dcmitype/StillImage" /><dc:title></dc:title></cc:Work></rdf:RDF></metadata><defs
     id="defs3701"><clipPath
       id="clipPath3711"
       clipPathUnits="userSpaceOnUse"><path
         id="path3713"
         d="m 0,618.041 999.999,0 L 999.999,0 0,0 0,618.041 Z" /></clipPath></defs><g
     transform="matrix(1.25,0,0,-1.25,0,772.55125)"
     id="g3705"><g
       id="g3707"><g
         clip-path="url(#clipPath3711)"
         id="g3709"><g
           transform="translate(515.6328,580.292)"
           id="g3715"><path
             id="path3717"
             style="fill:#488bc9;fill-opacity:1;fill-rule:nonzero;stroke:none"
             d="m 0,0 c -6.289,3.897 -13.728,6.142 -21.68,6.142 -22.842,0 -41.334,-18.518 -41.334,-41.359 0,-15.072 8.044,-28.247 20.087,-35.482 68.114,-40.84 113.73,-115.373 113.73,-200.585 0,-85.231 -45.638,-159.805 -113.8,-200.616 -12.009,-7.253 -20.034,-20.412 -20.034,-35.452 0,-22.842 18.504,-41.354 41.343,-41.354 7.995,0 15.412,2.253 21.74,6.185 l 0,-0.022 c 91.94,55.343 153.45,156.106 153.45,271.259 C 153.502,-156.14 91.975,-55.345 0,0" /></g><g
           transform="translate(433.0723,413.5518)"
           id="g3719"><path
             id="path3721"
             style="fill:#488bc9;fill-opacity:1;fill-rule:nonzero;stroke:none"
             d="m 0,0 c 0,-28.219 -22.886,-51.115 -51.135,-51.115 -28.216,0 -51.092,22.896 -51.092,51.115 0,28.229 22.876,51.113 51.092,51.113 C -22.886,51.113 0,28.229 0,0" /></g><g
           transform="translate(433.0723,204.4551)"
           id="g3723"><path
             id="path3725"
             style="fill:#488bc9;fill-opacity:1;fill-rule:nonzero;stroke:none"
             d="m 0,0 c 0,-28.217 -22.886,-51.099 -51.135,-51.099 -28.216,0 -51.092,22.882 -51.092,51.099 0,28.242 22.876,51.128 51.092,51.128 C -22.886,51.128 0,28.242 0,0" /></g><g
           transform="translate(267.6426,535.3203)"
           id="g3727"><path
             id="path3729"
             style="fill:#f89c1c;fill-opacity:1;fill-rule:nonzero;stroke:none"
             d="m 0,0 c 22.756,0 41.356,18.613 41.356,41.36 0,22.744 -18.6,41.361 -41.356,41.361 l -226.289,0 c -22.753,0 -41.354,-18.617 -41.354,-41.361 L -267.643,0 0,0 Z" /></g><g
           transform="translate(149.624,401.4941)"
           id="g3731"><path
             id="path3733"
             style="fill:#488bc9;fill-opacity:1;fill-rule:nonzero;stroke:none"
             d="M 0,0 C 22.754,0 41.356,18.611 41.356,41.354 41.356,64.108 22.754,82.711 0,82.711 l -149.624,0 0,-82.711 L 0,0 Z" /></g><g
           transform="translate(76.6748,267.6709)"
           id="g3735"><path
             id="path3737"
             style="fill:#488bc9;fill-opacity:1;fill-rule:nonzero;stroke:none"
             d="M 0,0 C 22.722,0 41.354,18.603 41.354,41.337 41.354,64.093 22.722,82.692 0,82.692 l -76.675,0 L -76.675,0 0,0 Z" /></g><g
           transform="translate(149.624,133.8428)"
           id="g3739"><path
             id="path3741"
             style="fill:#f89c1c;fill-opacity:1;fill-rule:nonzero;stroke:none"
             d="M 0,0 C 22.754,0 41.356,18.624 41.356,41.332 41.356,64.11 22.754,82.69 0,82.69 l -149.624,0 0,-82.69 L 0,0 Z" /></g><g
           transform="translate(41.3672,0)"
           id="g3743"><path
             id="path3745"
             style="fill:#488bc9;fill-opacity:1;fill-rule:nonzero;stroke:none"
             d="m 0,0 226.275,0 c 22.757,0 41.357,18.602 41.357,41.334 0,22.773 -18.6,41.376 -41.357,41.376 l -267.642,0 0,-41.376 C -41.367,18.602 -22.767,0 0,0" /></g><g
           transform="translate(732.3516,82.71)"
           id="g3747"><path
             id="path3749"
             style="fill:#f89c1c;fill-opacity:1;fill-rule:nonzero;stroke:none"
             d="m 0,0 c -22.752,0 -41.376,-18.603 -41.376,-41.376 0,-22.732 18.624,-41.334 41.376,-41.334 l 226.293,0 c 22.734,0 41.354,18.602 41.354,41.334 L 267.647,0 0,0 Z" /></g><g
           transform="translate(850.3721,216.5332)"
           id="g3751"><path
             id="path3753"
             style="fill:#488bc9;fill-opacity:1;fill-rule:nonzero;stroke:none"
             d="m 0,0 c -22.752,0 -41.354,-18.58 -41.354,-41.358 0,-22.708 18.602,-41.332 41.354,-41.332 l 149.627,0 0,82.69 L 0,0 Z" /></g><g
           transform="translate(923.3232,350.3633)"
           id="g3755"><path
             id="path3757"
             style="fill:#488bc9;fill-opacity:1;fill-rule:nonzero;stroke:none"
             d="m 0,0 c -22.734,0 -41.354,-18.6 -41.354,-41.355 0,-22.735 18.62,-41.337 41.354,-41.337 l 76.676,0 L 76.676,0 0,0 Z" /></g><g
           transform="translate(850.3721,484.2051)"
           id="g3759"><path
             id="path3761"
             style="fill:#f89c1c;fill-opacity:1;fill-rule:nonzero;stroke:none"
             d="m 0,0 c -22.752,0 -41.354,-18.603 -41.354,-41.356 0,-22.744 18.602,-41.355 41.354,-41.355 l 149.627,0 0,82.711 L 0,0 Z" /></g><g
           transform="translate(958.6445,618.041)"
           id="g3763"><path
             id="path3765"
             style="fill:#488bc9;fill-opacity:1;fill-rule:nonzero;stroke:none"
             d="m 0,0 -226.289,0 c -22.756,0 -41.38,-18.617 -41.38,-41.36 0,-22.747 18.624,-41.361 41.38,-41.361 l 267.643,0 0,41.361 C 41.354,-18.617 22.734,0 0,0" /></g></g></g></g></svg>