<?xml version="1.0" encoding="UTF-8" standalone="no"?>
<svg
   xmlns:dc="http://purl.org/dc/elements/1.1/"
   xmlns:cc="http://creativecommons.org/ns#"
   xmlns:rdf="http://www.w3.org/1999/02/22-rdf-syntax-ns#"
   xmlns:svg="http://www.w3.org/2000/svg"
   xmlns="http://www.w3.org/2000/svg"
   viewBox="0 0 1250 186.89999"
   height="186.89999"
   width="1250"
   xml:space="preserve"
   version="1.1"
   id="svg3355"><metadata
     id="metadata3361"><rdf:RDF><cc:Work
         rdf:about=""><dc:format>image/svg+xml</dc:format><dc:type
           rdf:resource="http://purl.org/dc/dcmitype/StillImage" /><dc:title></dc:title></cc:Work></rdf:RDF></metadata><defs
     id="defs3359"><clipPath
       id="clipPath3369"
       clipPathUnits="userSpaceOnUse"><path
         id="path3371"
         d="m 0,149.52 1000,0 L 1000,0 0,0 0,149.52 Z" /></clipPath></defs><g
     transform="matrix(1.25,0,0,-1.25,0,186.9)"
     id="g3363"><g
       id="g3365"><g
         clip-path="url(#clipPath3369)"
         id="g3367"><g
           transform="translate(124.7451,140.3872)"
           id="g3373"><path
             id="path3375"
             style="fill:#488bc9;fill-opacity:1;fill-rule:nonzero;stroke:none"
             d="m 0,0 c -1.523,0.943 -3.321,1.486 -5.246,1.486 -5.525,0 -9.999,-4.48 -9.999,-10.006 0,-3.646 1.946,-6.834 4.86,-8.584 16.478,-9.88 27.514,-27.912 27.514,-48.526 0,-20.62 -11.041,-38.662 -27.531,-48.535 -2.906,-1.754 -4.847,-4.938 -4.847,-8.576 0,-5.526 4.477,-10.005 10.002,-10.005 1.933,0 3.728,0.545 5.259,1.496 l 0,-0.004 c 22.243,13.388 37.124,37.765 37.124,65.624 C 37.136,-37.774 22.251,-13.389 0,0" /></g><g
           transform="translate(104.7715,100.0488)"
           id="g3377"><path
             id="path3379"
             style="fill:#488bc9;fill-opacity:1;fill-rule:nonzero;stroke:none"
             d="m 0,0 c 0,-6.827 -5.537,-12.366 -12.371,-12.366 -6.827,0 -12.36,5.539 -12.36,12.366 0,6.829 5.533,12.365 12.36,12.365 C -5.537,12.365 0,6.829 0,0" /></g><g
           transform="translate(104.7715,49.4629)"
           id="g3381"><path
             id="path3383"
             style="fill:#488bc9;fill-opacity:1;fill-rule:nonzero;stroke:none"
             d="m 0,0 c 0,-6.826 -5.537,-12.362 -12.371,-12.362 -6.827,0 -12.36,5.536 -12.36,12.362 0,6.832 5.533,12.369 12.36,12.369 C -5.537,12.369 0,6.832 0,0" /></g><g
           transform="translate(64.75,129.5073)"
           id="g3385"><path
             id="path3387"
             style="fill:#f89c1c;fill-opacity:1;fill-rule:nonzero;stroke:none"
             d="m 0,0 c 5.505,0 10.005,4.503 10.005,10.006 0,5.502 -4.5,10.006 -10.005,10.006 l -54.745,0 c -5.505,0 -10.005,-4.504 -10.005,-10.006 L -64.75,0 0,0 Z" /></g><g
           transform="translate(36.1982,97.1318)"
           id="g3389"><path
             id="path3391"
             style="fill:#488bc9;fill-opacity:1;fill-rule:nonzero;stroke:none"
             d="m 0,0 c 5.505,0 10.005,4.502 10.005,10.004 0,5.505 -4.5,10.005 -10.005,10.005 l -36.198,0 L -36.198,0 0,0 Z" /></g><g
           transform="translate(18.5498,64.7568)"
           id="g3393"><path
             id="path3395"
             style="fill:#488bc9;fill-opacity:1;fill-rule:nonzero;stroke:none"
             d="M 0,0 C 5.497,0 10.005,4.5 10.005,10 10.005,15.505 5.497,20.005 0,20.005 l -18.55,0 L -18.55,0 0,0 Z" /></g><g
           transform="translate(36.1982,32.3799)"
           id="g3397"><path
             id="path3399"
             style="fill:#f89c1c;fill-opacity:1;fill-rule:nonzero;stroke:none"
             d="m 0,0 c 5.505,0 10.005,4.506 10.005,10 0,5.51 -4.5,10.005 -10.005,10.005 l -36.198,0 L -36.198,0 0,0 Z" /></g><g
           transform="translate(10.0073,0)"
           id="g3401"><path
             id="path3403"
             style="fill:#488bc9;fill-opacity:1;fill-rule:nonzero;stroke:none"
             d="m 0,0 54.743,0 c 5.505,0 10.005,4.5 10.005,10 0,5.51 -4.5,10.01 -10.005,10.01 l -64.75,0 0,-10.01 C -10.007,4.5 -5.507,0 0,0" /></g><g
           transform="translate(177.1743,20.0098)"
           id="g3405"><path
             id="path3407"
             style="fill:#f89c1c;fill-opacity:1;fill-rule:nonzero;stroke:none"
             d="m 0,0 c -5.504,0 -10.01,-4.5 -10.01,-10.01 0,-5.5 4.506,-10 10.01,-10 l 54.746,0 c 5.499,0 10.004,4.5 10.004,10 L 64.75,0 0,0 Z" /></g><g
           transform="translate(205.7266,52.3848)"
           id="g3409"><path
             id="path3411"
             style="fill:#488bc9;fill-opacity:1;fill-rule:nonzero;stroke:none"
             d="m 0,0 c -5.505,0 -10.005,-4.495 -10.005,-10.005 0,-5.494 4.5,-10 10.005,-10 l 36.198,0 L 36.198,0 0,0 Z" /></g><g
           transform="translate(223.375,84.7617)"
           id="g3413"><path
             id="path3415"
             style="fill:#488bc9;fill-opacity:1;fill-rule:nonzero;stroke:none"
             d="m 0,0 c -5.5,0 -10.005,-4.5 -10.005,-10.004 0,-5.501 4.505,-10.001 10.005,-10.001 l 18.55,0 L 18.55,0 0,0 Z" /></g><g
           transform="translate(205.7266,117.1411)"
           id="g3417"><path
             id="path3419"
             style="fill:#f89c1c;fill-opacity:1;fill-rule:nonzero;stroke:none"
             d="m 0,0 c -5.505,0 -10.005,-4.5 -10.005,-10.005 0,-5.502 4.5,-10.004 10.005,-10.004 l 36.198,0 L 36.198,0 0,0 Z" /></g><g
           transform="translate(231.9199,149.5195)"
           id="g3421"><path
             id="path3423"
             style="fill:#488bc9;fill-opacity:1;fill-rule:nonzero;stroke:none"
             d="m 0,0 -54.745,0 c -5.505,0 -10.01,-4.504 -10.01,-10.006 0,-5.503 4.505,-10.006 10.01,-10.006 l 64.75,0 0,10.006 C 10.005,-4.504 5.5,0 0,0" /></g><g
           transform="translate(362.2583,117.7236)"
           id="g3425"><path
             id="path3427"
             style="fill:#474748;fill-opacity:1;fill-rule:nonzero;stroke:none"
             d="m 0,0 c 3.109,0 4.664,-1.679 4.664,-5.04 l 0,-75.848 c 0,-3.363 -1.555,-5.039 -4.664,-5.039 -3.019,0 -4.532,1.676 -4.532,5.039 l 0,34.144 -57.327,0 0,-34.144 c 0,-3.363 -1.557,-5.039 -4.664,-5.039 -3.022,0 -4.534,1.676 -4.534,5.039 l 0,75.848 c 0,3.361 1.512,5.04 4.534,5.04 3.107,0 4.664,-1.679 4.664,-5.04 l 0,-33.263 57.327,0 0,33.263 C -4.532,-1.679 -3.019,0 0,0" /></g><g
           transform="translate(397.5288,45.4023)"
           id="g3429"><path
             id="path3431"
             style="fill:#474748;fill-opacity:1;fill-rule:nonzero;stroke:none"
             d="m 0,0 c 4.241,-4.368 9.761,-6.552 16.551,-6.552 6.805,0 12.321,2.184 16.556,6.552 4.241,4.362 6.367,10.078 6.367,17.133 0,6.974 -2.141,12.665 -6.425,17.073 -4.283,4.413 -9.777,6.612 -16.498,6.612 C 9.761,40.818 4.241,38.637 0,34.267 -4.246,29.904 -6.367,24.192 -6.367,17.133 -6.367,10.078 -4.246,4.362 0,0 m 43.879,47.878 c 2.855,0 4.288,-1.558 4.288,-4.664 l 0,-52.155 c 0,-3.11 -1.433,-4.664 -4.288,-4.664 -2.935,0 -4.405,1.554 -4.405,4.664 l 0,5.917 -0.254,0 c -5.034,-7.562 -13.061,-11.338 -24.044,-11.338 -9.063,0 -16.398,2.898 -21.982,8.693 -5.584,5.796 -8.381,13.395 -8.381,22.802 0,9.412 2.797,17.01 8.381,22.807 5.584,5.796 12.919,8.694 21.982,8.694 10.983,0 19.01,-3.781 24.044,-11.342 l 0.254,0 0,5.922 c 0,3.106 1.47,4.664 4.405,4.664" /></g><g
           transform="translate(478.0156,45.4023)"
           id="g3433"><path
             id="path3435"
             style="fill:#474748;fill-opacity:1;fill-rule:nonzero;stroke:none"
             d="m 0,0 c 4.241,-4.368 9.761,-6.552 16.567,-6.552 6.8,0 12.347,2.184 16.626,6.552 4.287,4.362 6.43,10.078 6.43,17.133 0,7.059 -2.143,12.771 -6.43,17.134 -4.279,4.37 -9.826,6.551 -16.626,6.551 C 9.846,40.818 4.341,38.619 0.063,34.206 -4.225,29.798 -6.367,24.107 -6.367,17.133 -6.367,10.078 -4.246,4.362 0,0 m 17.947,48.634 c 9.074,0 16.424,-2.898 22.056,-8.694 5.625,-5.797 8.44,-13.395 8.44,-22.807 0,-9.407 -2.815,-17.006 -8.44,-22.802 -5.632,-5.795 -12.982,-8.693 -22.056,-8.693 -10.999,0 -19.02,3.776 -24.06,11.338 l -0.254,0 0,-29.354 c 0,-3.109 -1.47,-4.664 -4.404,-4.664 -2.861,0 -4.289,1.555 -4.289,4.664 l 0,75.592 c 0,3.106 1.428,4.664 4.289,4.664 2.934,0 4.404,-1.558 4.404,-4.664 l 0,-5.922 0.254,0 c 5.04,7.561 13.061,11.342 24.06,11.342" /></g><g
           transform="translate(555.9644,45.4023)"
           id="g3437"><path
             id="path3439"
             style="fill:#474748;fill-opacity:1;fill-rule:nonzero;stroke:none"
             d="m 0,0 c 4.24,-4.368 9.768,-6.552 16.557,-6.552 6.8,0 12.341,2.184 16.631,6.552 4.283,4.362 6.417,10.078 6.417,17.133 0,7.059 -2.134,12.771 -6.417,17.134 -4.29,4.37 -9.831,6.551 -16.631,6.551 C 9.846,40.818 4.352,38.619 0.062,34.206 -4.215,29.798 -6.355,24.107 -6.355,17.133 -6.355,10.078 -4.24,4.362 0,0 m 17.936,48.634 c 9.074,0 16.425,-2.898 22.05,-8.694 5.627,-5.797 8.446,-13.395 8.446,-22.807 0,-9.407 -2.819,-17.006 -8.446,-22.802 -5.625,-5.795 -12.976,-8.693 -22.05,-8.693 -10.989,0 -19.004,3.776 -24.043,11.338 l -0.248,0 0,-29.354 c 0,-3.109 -1.477,-4.664 -4.416,-4.664 -2.856,0 -4.284,1.555 -4.284,4.664 l 0,75.592 c 0,3.106 1.428,4.664 4.284,4.664 2.939,0 4.416,-1.558 4.416,-4.664 l 0,-5.922 0.248,0 c 5.039,7.561 13.054,11.342 24.043,11.342" /></g><g
           transform="translate(670.8804,93.2803)"
           id="g3441"><path
             id="path3443"
             style="fill:#474748;fill-opacity:1;fill-rule:nonzero;stroke:none"
             d="m 0,0 c 2.861,0 4.289,-1.558 4.289,-4.664 l 0,-51.405 c 0,-9.154 -2.67,-16.376 -8,-21.669 -5.336,-5.288 -12.623,-7.938 -21.867,-7.938 -12.008,0 -20.447,3.322 -25.318,9.952 -0.586,0.846 -0.887,1.724 -0.887,2.649 0,1.179 0.381,2.163 1.137,2.956 0.755,0.804 1.759,1.2 3.023,1.2 1.006,0 1.894,-0.38 2.644,-1.131 4.708,-5.209 11.131,-7.815 19.28,-7.815 6.631,0 11.845,1.908 15.621,5.731 3.785,3.823 5.674,9.096 5.674,15.817 l 0,6.044 -0.254,0 c -4.791,-7.224 -12.264,-10.835 -22.426,-10.835 -8.402,0 -14.828,2.395 -19.275,7.18 -4.457,4.791 -6.678,11.719 -6.678,20.792 l 0,28.472 c 0,3.106 1.428,4.664 4.283,4.664 2.94,0 4.404,-1.558 4.404,-4.664 l 0,-27.715 c 0,-6.806 1.639,-11.993 4.918,-15.562 3.274,-3.576 8.022,-5.357 14.235,-5.357 6.304,0 11.343,2.12 15.119,6.366 3.785,4.242 5.674,9.931 5.674,17.07 l 0,25.198 C -4.404,-1.558 -2.934,0 0,0" /></g><g
           transform="translate(687.564,116.9648)"
           id="g3445"><path
             id="path3447"
             style="fill:#474748;fill-opacity:1;fill-rule:nonzero;stroke:none"
             d="m 0,0 69.176,0 c 1.344,0 2.433,-0.376 3.273,-1.132 0.836,-0.756 1.258,-1.766 1.258,-3.025 0,-1.343 -0.396,-2.392 -1.193,-3.151 -0.799,-0.756 -1.916,-1.131 -3.338,-1.131 l -29.865,0 0,-71.69 c 0,-3.363 -1.549,-5.039 -4.659,-5.039 -3.025,0 -4.533,1.676 -4.533,5.039 l 0,71.69 -30.119,0 c -1.428,0 -2.539,0.375 -3.336,1.131 -0.799,0.759 -1.191,1.808 -1.191,3.151 0,1.259 0.414,2.269 1.254,3.025 C -2.432,-0.376 -1.338,0 0,0" /></g><g
           transform="translate(785.353,86.2207)"
           id="g3449"><path
             id="path3451"
             style="fill:#474748;fill-opacity:1;fill-rule:nonzero;stroke:none"
             d="m 0,0 c -5.965,0 -10.982,-1.74 -15.049,-5.225 -4.082,-3.489 -6.578,-8.129 -7.504,-13.923 l 45.233,0 C 21.754,-13.354 19.258,-8.714 15.182,-5.225 11.109,-1.74 6.049,0 0,0 m 30.871,-21.417 c 0,-3.527 -1.851,-5.288 -5.543,-5.288 l -48.129,0 c 0.67,-6.219 3.125,-11.216 7.365,-14.996 4.241,-3.781 9.641,-5.669 16.192,-5.669 8.148,0 14.32,2.728 18.517,8.185 0.842,1.18 2.022,1.767 3.534,1.767 1.179,0 2.14,-0.381 2.898,-1.132 0.756,-0.756 1.131,-1.719 1.131,-2.897 0,-0.926 -0.291,-1.809 -0.883,-2.645 -5.791,-7.397 -14.193,-11.089 -25.197,-11.089 -9.746,0 -17.598,2.899 -23.557,8.694 -5.97,5.796 -8.947,13.394 -8.947,22.801 0,9.413 2.934,17.01 8.814,22.808 5.881,5.796 13.526,8.693 22.934,8.693 8.904,0 16.275,-2.77 22.113,-8.312 5.838,-5.547 8.758,-12.523 8.758,-20.92" /></g><g
           transform="translate(841.939,45.4023)"
           id="g3453"><path
             id="path3455"
             style="fill:#474748;fill-opacity:1;fill-rule:nonzero;stroke:none"
             d="m 0,0 c 4.24,-4.368 9.766,-6.552 16.572,-6.552 6.799,0 12.321,2.184 16.567,6.552 4.24,4.362 6.355,10.078 6.355,17.133 0,6.974 -2.14,12.665 -6.418,17.073 -4.289,4.413 -9.789,6.612 -16.504,6.612 C 9.766,40.818 4.24,38.637 0,34.267 -4.242,29.904 -6.361,24.192 -6.361,17.133 -6.361,10.078 -4.242,4.362 0,0 m 43.91,47.878 c 2.85,0 4.283,-1.558 4.283,-4.664 l 0,-52.155 c 0,-3.11 -1.433,-4.664 -4.283,-4.664 -2.945,0 -4.416,1.554 -4.416,4.664 l 0,5.917 -0.248,0 c -5.039,-7.562 -13.06,-11.338 -24.064,-11.338 -9.075,0 -16.399,2.898 -21.989,8.693 -5.584,5.796 -8.381,13.395 -8.381,22.802 0,9.412 2.797,17.01 8.381,22.807 5.59,5.796 12.914,8.694 21.989,8.694 11.004,0 19.025,-3.781 24.064,-11.342 l 0.248,0 0,5.922 c 0,3.106 1.471,4.664 4.416,4.664" /></g><g
           transform="translate(976.8159,94.0361)"
           id="g3457"><path
             id="path3459"
             style="fill:#474748;fill-opacity:1;fill-rule:nonzero;stroke:none"
             d="m 0,0 c 15.451,0 23.184,-8.947 23.184,-26.832 l 0,-30.743 c 0,-3.11 -1.471,-4.664 -4.411,-4.664 -2.855,0 -4.283,1.554 -4.283,4.664 l 0,29.981 c 0,13.19 -5.295,19.779 -15.881,19.779 -5.367,0 -9.613,-1.994 -12.722,-5.981 -3.104,-3.992 -4.658,-9.345 -4.658,-16.066 l 0,-27.713 c 0,-3.11 -1.475,-4.664 -4.411,-4.664 -2.861,0 -4.289,1.554 -4.289,4.664 l 0,29.981 c 0,13.19 -5.33,19.779 -16,19.779 -5.289,0 -9.492,-1.994 -12.601,-5.981 -3.098,-3.992 -4.653,-9.345 -4.653,-16.066 l 0,-27.713 c 0,-3.11 -1.427,-4.664 -4.289,-4.664 -2.939,0 -4.41,1.554 -4.41,4.664 l 0,52.155 c 0,3.107 1.471,4.664 4.41,4.664 2.862,0 4.289,-1.557 4.289,-4.664 l 0,-4.029 0.248,0 C -56.273,-3.146 -49.98,0 -41.578,0 c 9.656,0 16.25,-3.823 19.781,-11.464 l 0.254,0 C -17.344,-3.823 -10.162,0 0,0" /></g></g></g></g></svg>